<?xml version="1.0" standalone="no"?>
<!DOCTYPE svg PUBLIC "-//W3C//DTD SVG 20010904//EN"
 "http://www.w3.org/TR/2001/REC-SVG-20010904/DTD/svg10.dtd">
<svg version="1.0" xmlns="http://www.w3.org/2000/svg"
 width="41.000000pt" height="25.000000pt" viewBox="0 0 41.000000 25.000000"
 preserveAspectRatio="xMidYMid meet">

<g transform="translate(0.000000,25.000000) scale(0.100000,-0.100000)"
fill="#000000" stroke="none">
<path d="M40 201 c15 -28 13 -148 -2 -154 -7 -3 1 -5 17 -5 17 0 24 2 18 5
-14 5 -19 113 -5 113 4 0 27 -27 50 -60 24 -33 49 -60 56 -60 8 0 10 22 8 75
-3 50 0 80 8 90 11 13 8 15 -15 15 -23 0 -25 -3 -16 -14 7 -8 11 -37 9 -67
l-3 -53 -53 67 c-30 37 -60 67 -68 67 -11 0 -12 -4 -4 -19z"/>
<path d="M255 196 c-34 -34 -35 -103 -2 -134 38 -36 127 -23 127 19 0 5 -9 0
-20 -11 -36 -36 -82 -20 -99 33 -9 25 -9 42 -1 63 19 50 58 58 98 22 21 -20
24 -20 19 -5 -4 10 -7 22 -7 25 0 4 -20 8 -45 10 -37 2 -50 -2 -70 -22z"/>
</g>
</svg>
